<svg width="60" height="60" viewBox="0 0 60 60" fill="none" xmlns="http://www.w3.org/2000/svg">
<rect width="60" height="60" rx="30" fill="white"/>
<g clip-path="url(#clip0_percent)">
<path d="M22.9707 27.5422C24.0902 27.5422 25.1846 27.2102 26.1155 26.5882C27.0464 25.9662 27.7719 25.0822 28.2003 24.0479C28.6288 23.0135 28.7409 21.8754 28.5224 20.7773C28.304 19.6793 27.7649 18.6707 26.9733 17.8791C26.1816 17.0874 25.173 16.5483 24.075 16.3299C22.9769 16.1115 21.8388 16.2236 20.8045 16.652C19.7701 17.0804 18.8861 17.806 18.2641 18.7368C17.6421 19.6677 17.3101 20.7621 17.3101 21.8817C17.3101 23.3829 17.9065 24.8227 18.9681 25.8843C20.0296 26.9458 21.4694 27.5422 22.9707 27.5422ZM22.9707 19.4557C23.4505 19.4557 23.9195 19.598 24.3184 19.8646C24.7174 20.1311 25.0283 20.51 25.2119 20.9533C25.3956 21.3966 25.4436 21.8844 25.35 22.3549C25.2564 22.8255 25.0253 23.2578 24.6861 23.5971C24.3468 23.9363 23.9145 24.1674 23.4439 24.261C22.9734 24.3546 22.4856 24.3066 22.0423 24.1229C21.599 23.9393 21.2201 23.6284 20.9536 23.2294C20.687 22.8305 20.5447 22.3615 20.5447 21.8817C20.5447 21.2383 20.8003 20.6212 21.2553 20.1663C21.7102 19.7113 22.3273 19.4557 22.9707 19.4557ZM35.9091 32.3941C34.7895 32.3941 33.6951 32.7261 32.7642 33.3481C31.8333 33.9701 31.1078 34.8541 30.6794 35.8885C30.251 36.9228 30.1389 38.0609 30.3573 39.159C30.5757 40.257 31.1148 41.2656 31.9064 42.0573C32.6981 42.8489 33.7067 43.388 34.8047 43.6064C35.9028 43.8248 37.0409 43.7127 38.0752 43.2843C39.1096 42.8559 39.9936 42.1304 40.6156 41.1995C41.2376 40.2686 41.5696 39.1742 41.5696 38.0546C41.5696 36.5534 40.9732 35.1136 39.9117 34.052C38.8501 32.9905 37.4103 32.3941 35.9091 32.3941ZM35.9091 40.4806C35.4292 40.4806 34.9602 40.3383 34.5613 40.0718C34.1623 39.8052 33.8514 39.4263 33.6678 38.983C33.4842 38.5397 33.4361 38.052 33.5297 37.5814C33.6233 37.1108 33.8544 36.6785 34.1936 36.3392C34.5329 36 34.9652 35.7689 35.4358 35.6753C35.9064 35.5817 36.3941 35.6298 36.8374 35.8134C37.2807 35.997 37.6596 36.3079 37.9262 36.7069C38.1927 37.1058 38.335 37.5748 38.335 38.0546C38.335 38.6981 38.0794 39.3151 37.6245 39.7701C37.1695 40.225 36.5525 40.4806 35.9091 40.4806ZM41.9577 16.6416C41.824 16.5076 41.6652 16.4013 41.4904 16.3288C41.3156 16.2563 41.1281 16.2189 40.9389 16.2189C40.7496 16.2189 40.5621 16.2563 40.3873 16.3288C40.2125 16.4013 40.0537 16.5076 39.92 16.6416L16.922 39.6396C16.6536 39.911 16.5026 40.2769 16.5015 40.6585C16.501 40.9435 16.5852 41.2222 16.7434 41.4593C16.9015 41.6964 17.1264 41.8813 17.3897 41.9904C17.653 42.0995 17.9428 42.128 18.2223 42.0723C18.5018 42.0166 18.7584 41.8791 18.9598 41.6774L41.9577 18.6794C42.0917 18.5457 42.198 18.3869 42.2706 18.2121C42.3431 18.0372 42.3804 17.8498 42.3804 17.6605C42.3804 17.4712 42.3431 17.2838 42.2706 17.109C42.198 16.9341 42.0917 16.7753 41.9577 16.6416Z" fill="#526AC2"/>
</g>
<defs>
<clipPath id="clip0_percent">
<rect width="27" height="27" fill="white" transform="translate(16.5 16.5)"/>
</clipPath>
</defs>
</svg>
