<svg width="60" height="60" viewBox="0 0 60 60" fill="none" xmlns="http://www.w3.org/2000/svg">
<rect width="60" height="60" rx="30" fill="white"/>
<path d="M30 43.5C22.5557 43.5 16.5 37.4443 16.5 30C16.5 22.5557 22.5557 16.5 30 16.5C37.4443 16.5 43.5 22.5557 43.5 30C43.5 37.4443 37.4443 43.5 30 43.5ZM30 18.4286C23.6164 18.4286 18.4286 23.6164 18.4286 30C18.4286 36.3836 23.6164 41.5714 30 41.5714C36.3836 41.5714 41.5714 36.3836 41.5714 30C41.5714 23.6164 36.3836 18.4286 30 18.4286Z" fill="#526AC2"/>
<path d="M27.1071 39.6428C26.5671 39.6428 26.1428 39.2186 26.1428 38.6786V31.9286H23.2499C22.7099 31.9286 22.2856 31.5043 22.2856 30.9643C22.2856 30.4243 22.7099 30 23.2499 30H26.1428V23.25C26.1428 22.71 26.5671 22.2857 27.1071 22.2857H32.8928C34.1715 22.2857 35.3979 22.7937 36.3021 23.6979C37.2062 24.6021 37.7142 25.8284 37.7142 27.1071C37.7142 28.3859 37.2062 29.6122 36.3021 30.5164C35.3979 31.4206 34.1715 31.9286 32.8928 31.9286H28.0714V38.6786C28.0714 39.2186 27.6471 39.6428 27.1071 39.6428ZM28.0714 30H32.8928C34.4935 30 35.7856 28.7078 35.7856 27.1071C35.7856 25.5064 34.4935 24.2143 32.8928 24.2143H28.0714V30Z" fill="#526AC2"/>
<path d="M32.8928 35.7856H23.2499C22.7099 35.7856 22.2856 35.3613 22.2856 34.8213C22.2856 34.2813 22.7099 33.8571 23.2499 33.8571H32.8928C33.4328 33.8571 33.8571 34.2813 33.8571 34.8213C33.8571 35.3613 33.4328 35.7856 32.8928 35.7856Z" fill="#526AC2"/>
</svg>
