<svg viewBox="0 0 24 24" fill="currentColor" xmlns="http://www.w3.org/2000/svg">
<path d="M12 2C10.08 2 8.5 2.92 7.4 4.25C6.3 5.58 5.75 7.32 5.75 9C5.75 10.68 6.05 12.3 6.35 13.85C6.65 15.4 6.95 16.87 6.95 18.15C6.95 19.43 6.58 20.55 5.75 21.5L7.25 22.75C8.42 21.42 9 19.9 9 18.15C9 16.4 8.65 14.8 8.3 13.15C7.95 11.5 7.75 9.8 7.75 9C7.75 7.67 8.17 6.47 8.92 5.55C9.67 4.63 10.75 4 12 4C13.25 4 14.33 4.63 15.08 5.55C15.83 6.47 16.25 7.67 16.25 9C16.25 9.8 16.05 11.5 15.7 13.15C15.35 14.8 15 16.4 15 18.15C15 19.9 15.58 21.42 16.75 22.75L18.25 21.5C17.42 20.55 17.05 19.43 17.05 18.15C17.05 16.87 17.35 15.4 17.65 13.85C17.95 12.3 18.25 10.68 18.25 9C18.25 7.32 17.7 5.58 16.6 4.25C15.5 2.92 13.92 2 12 2Z"/>
</svg>
