<svg preserveAspectRatio="none" width="100%" height="100%" overflow="visible" style="display: block;" viewBox="0 0 19.875 19.875" fill="none" xmlns="http://www.w3.org/2000/svg">
<g id="mdi:kids-room">
<path id="Vector" d="M13.043 15.842C12.3556 15.842 11.8008 15.1464 11.8008 14.2852C11.8008 13.4322 12.3556 12.7366 13.043 12.7366C13.7303 12.7366 14.2852 13.4322 14.2852 14.2852C14.2852 15.1464 13.7303 15.842 13.043 15.842ZM9.93751 9.31641C8.91064 9.31641 8.07423 8.62078 8.07423 7.76781C8.07423 6.90656 8.91064 6.21094 9.93751 6.21094C10.9644 6.21094 11.8008 6.90656 11.8008 7.76781C11.8008 8.62078 10.9644 9.31641 9.93751 9.31641ZM6.83204 15.842C6.1447 15.842 5.58985 15.1464 5.58985 14.2852C5.58985 13.4322 6.1447 12.7366 6.83204 12.7366C7.51939 12.7366 8.07423 13.4322 8.07423 14.2852C8.07423 15.1464 7.51939 15.842 6.83204 15.842ZM9.93751 6.83203C10.277 6.83203 10.5586 7.11359 10.5586 7.45313C10.5586 7.79266 10.277 8.07422 9.93751 8.07422C9.59798 8.07422 9.31642 7.79266 9.31642 7.45313C9.31642 7.11359 9.59798 6.83203 9.93751 6.83203ZM15.5274 9.9375C15.2624 9.9375 15.0056 9.99547 14.7738 10.1031C14.3763 9.59797 13.838 9.16734 13.192 8.83609C13.6641 8.17359 13.9456 7.37031 13.9456 6.50078V6.45109C14.8483 6.26063 15.5274 5.45734 15.5274 4.48844C15.5274 3.38703 14.6247 2.48438 13.5233 2.48438C12.9519 2.48438 12.4219 2.72453 12.0741 3.10547C11.4354 2.69955 10.6943 2.48398 9.93751 2.48398C9.18075 2.48398 8.43964 2.69955 7.80095 3.10547C7.45314 2.72453 6.92314 2.48438 6.35173 2.48438C5.25032 2.48438 4.34767 3.38703 4.34767 4.48844C4.34767 5.44906 5.02673 6.25234 5.9211 6.45109V6.50078C5.9211 7.37031 6.21095 8.18188 6.6747 8.83609C6.03704 9.16734 5.49876 9.59797 5.10126 10.1031C4.81826 9.97564 4.5078 9.92121 4.19831 9.94481C3.88882 9.96842 3.5902 10.0693 3.32981 10.2382C3.06941 10.4072 2.85557 10.6387 2.70787 10.9117C2.56017 11.1847 2.48333 11.4904 2.48439 11.8008C2.48439 12.8359 3.31251 13.6641 4.34767 13.6641H4.39735C4.36423 13.8628 4.34767 14.0781 4.34767 14.2852C4.34767 15.9994 5.45735 17.3906 6.83204 17.3906C7.66845 17.3906 8.40548 16.8689 8.86095 16.0739C9.20876 16.1236 9.56485 16.1484 9.93751 16.1484C10.3102 16.1484 10.6663 16.1236 11.0141 16.0739C11.4695 16.8689 12.2066 17.3906 13.043 17.3906C14.4177 17.3906 15.5274 15.9994 15.5274 14.2852C15.5274 14.0781 15.5108 13.8628 15.4777 13.6641H15.5274C16.5625 13.6641 17.3906 12.8359 17.3906 11.8008C17.3906 10.7656 16.5625 9.9375 15.5274 9.9375Z" fill="var(--fill-0, #607BD4)"/>
</g>
</svg>
