<svg preserveAspectRatio="none" width="100%" height="100%" overflow="visible" style="display: block;" viewBox="0 0 26.7428 25.948" fill="none" xmlns="http://www.w3.org/2000/svg">
<g id="Group">
<g id="Vector">
</g>
<path id="Vector_2" fill-rule="evenodd" clip-rule="evenodd" d="M23.9727 0.156295C24.3015 0.0179041 24.6614 -0.029826 25.0149 0.0180721C25.3684 0.0659702 25.7026 0.207746 25.9827 0.428642C26.2629 0.649539 26.4787 0.94148 26.6077 1.27408C26.7367 1.60668 26.7742 1.96778 26.7163 2.3198L23.6986 20.6244C23.4058 22.3901 21.4685 23.4026 19.8492 22.5231C18.4947 21.7873 16.4829 20.6537 14.6733 19.4708C13.7686 18.8787 10.997 16.9826 11.3376 15.6334C11.6303 14.4798 16.2873 10.1449 18.9484 7.56755C19.9929 6.55499 19.5166 5.97087 18.2832 6.90227C15.2202 9.21479 10.3024 12.7315 8.67647 13.7214C7.24212 14.5943 6.49435 14.7433 5.6002 14.5943C3.96893 14.3228 2.45608 13.9024 1.22131 13.3901C-0.447219 12.6982 -0.366055 10.4043 1.21998 9.73637L23.9727 0.156295Z" fill="url(#paint0_linear_2005_4497)"/>
</g>
<defs>
<linearGradient id="paint0_linear_2005_4497" x1="13.3714" y1="0" x2="13.3714" y2="22.8458" gradientUnits="userSpaceOnUse">
<stop stop-color="#2E365D"/>
<stop offset="1" stop-color="#46559D"/>
</linearGradient>
</defs>
</svg>
