<svg preserveAspectRatio="none" width="100%" height="100%" overflow="visible" style="display: block;" viewBox="0 0 723.162 739.913" fill="none" xmlns="http://www.w3.org/2000/svg">
<path id="Vector" fill-rule="evenodd" clip-rule="evenodd" d="M5.12278 4.937C0.628997 8.3609 -0.691291 23.8579 0.32173 61.1455L1.71876 112.619L40.8953 114.288C64.3004 115.287 78.7788 115.269 86.6225 115.269C89.1191 119.115 91.7481 146.829 94.9119 167.471C108.955 259.154 142.485 353.689 189.324 433.669C248.968 535.502 311.607 599.869 405.007 655.281C473.21 695.75 516.036 711.882 583.558 722.552C643.009 731.946 723.031 768.165 721.553 695.646C720.933 665.27 729.488 607.715 712.469 607.715C709.924 603.748 624.775 588.962 616.09 588.962C561.483 588.962 462.413 547.09 400.83 497.978C337.883 447.78 277.078 362.87 240.648 274.287C224.218 234.338 198.763 130.23 203.276 121.448C205.24 117.625 250.72 115.506 330.874 115.506C446.185 115.506 455.437 114.756 455.682 105.402C456.92 58.3913 455.72 11.0573 453.156 6.07445C449.397 -1.24103 14.6625 -2.34382 5.12278 4.937Z" fill="var(--fill-0, white)" fill-opacity="0.14"/>
</svg>
