<svg preserveAspectRatio="none" width="100%" height="100%" overflow="visible" style="display: block;" viewBox="0 0 13.6009 15.5439" fill="none" xmlns="http://www.w3.org/2000/svg">
<g id="Frame 411" clip-path="url(#clip0_2009_4148)">
<path id="Vector" d="M13.5653 5.22056C13.5217 5.07793 13.4395 4.95202 13.329 4.85846C13.2185 4.7649 13.0845 4.70782 12.9436 4.69429L9.01744 4.31644L7.46581 0.465493C7.35123 0.182564 7.09058 0 6.80044 0C6.51031 0 6.24955 0.182564 6.13572 0.465493L4.58408 4.31644L0.65731 4.69429C0.36943 4.72245 0.125673 4.92915 0.0356196 5.22056C-0.00826142 5.36331 -0.0116748 5.51657 0.0258024 5.66136C0.0632795 5.80615 0.140001 5.9361 0.246463 6.03513L3.21434 8.79384L2.33927 12.8796C2.27525 13.18 2.38523 13.4906 2.62038 13.6708C2.74354 13.7658 2.89196 13.8169 3.04427 13.8168C3.17483 13.8168 3.30294 13.7792 3.41492 13.7081L6.80044 11.5622L10.1854 13.7081C10.3068 13.7851 10.4469 13.8226 10.5882 13.816C10.7296 13.8094 10.866 13.7589 10.9805 13.6708C11.2157 13.4906 11.3257 13.18 11.2616 12.8796L10.3866 8.79387L13.3544 6.03515C13.4609 5.93614 13.5376 5.80619 13.5751 5.6614C13.6126 5.5166 13.6092 5.36334 13.5653 5.22058V5.22056Z" fill="var(--fill-0, #191E35)"/>
</g>
<defs>
<clipPath id="clip0_2009_4148">
<rect width="13.6009" height="15.5439" fill="white"/>
</clipPath>
</defs>
</svg>
