<svg preserveAspectRatio="none" width="100%" height="100%" overflow="visible" style="display: block;" viewBox="0 0 75.5938 75.5938" fill="none" xmlns="http://www.w3.org/2000/svg">
<g id="Frame 2131328765">
<circle id="Ellipse 2288" cx="37.7969" cy="37.7969" r="37.7969" fill="var(--fill-0, white)"/>
<g id="material-symbols-light:rate-review">
<path id="Vector" d="M30.3376 39.9437H33.2735L40.2653 32.9426C40.3796 32.8115 40.465 32.6743 40.5217 32.5308C40.5784 32.3873 40.6072 32.2447 40.6081 32.103C40.6089 31.9613 40.5802 31.8209 40.5217 31.6819C40.465 31.5437 40.3822 31.4087 40.2733 31.2767L39.0444 30.0146C38.9293 29.9004 38.7973 29.8149 38.6486 29.7582C38.498 29.7016 38.3496 29.6732 38.2035 29.6732C38.0618 29.6732 37.9201 29.6976 37.7784 29.7463C37.6376 29.7941 37.5016 29.8836 37.3706 30.0146L30.3376 37.0078V39.9437ZM38.1955 33.3983L36.9335 32.1429L38.2035 30.8742L39.4324 32.1362L38.1955 33.3983ZM37.5526 39.9437H45.2577V38.6152H38.881L37.5526 39.9437ZM25.8407 48.527V27.9874C25.8407 27.3754 26.0457 26.8648 26.4558 26.4556C26.8658 26.0465 27.3759 25.8414 27.9862 25.8405H47.6078C48.2189 25.8405 48.7291 26.0456 49.1382 26.4556C49.5474 26.8657 49.7524 27.3763 49.7533 27.9874V42.2938C49.7533 42.9049 49.5483 43.4155 49.1382 43.8255C48.7282 44.2356 48.218 44.4402 47.6078 44.4393H29.9284L25.8407 48.527Z" fill="var(--fill-0, #607BD4)"/>
</g>
</g>
</svg>
