<svg preserveAspectRatio="none" width="100%" height="100%" overflow="visible" style="display: block;" viewBox="0 0 723.162 701.904" fill="none" xmlns="http://www.w3.org/2000/svg">
<path id="Vector" fill-rule="evenodd" clip-rule="evenodd" d="M5.12278 4.68339C0.628997 7.9314 -0.691291 22.6323 0.32173 58.0044L1.71876 106.834L40.8953 108.417C64.3004 109.365 78.7788 109.348 86.6225 109.348C89.1191 112.996 91.7481 139.287 94.9119 158.868C108.955 245.841 142.485 335.52 189.324 411.391C248.968 507.993 311.607 569.054 405.007 621.619C473.21 660.009 516.036 675.312 583.558 685.434C643.009 694.346 723.031 728.705 721.553 659.911C720.933 631.095 729.488 576.497 712.469 576.497C709.924 572.734 624.775 558.707 616.09 558.707C561.483 558.707 462.413 518.986 400.83 472.397C337.883 424.778 277.078 344.229 240.648 260.197C224.218 222.3 198.763 123.54 203.276 115.209C205.24 111.583 250.72 109.573 330.874 109.573C446.185 109.573 455.437 108.861 455.682 99.9876C456.92 55.3918 455.72 10.4893 453.156 5.7624C449.397 -1.17727 14.6625 -2.22342 5.12278 4.68339Z" fill="var(--fill-0, white)" fill-opacity="0.04"/>
</svg>
