<svg width="32" height="34" viewBox="0 0 22 34" fill="none" xmlns="http://www.w3.org/2000/svg">
  <path fillRule="evenodd" clipRule="evenodd" d="M0.180961 5.79834C0.0222192 5.89891 -0.0244197 6.3541 0.011365 7.44935L0.0607149 8.9613L1.44462 9.01031C2.2714 9.03965 2.89313 9.14209 2.98912 9.2647C3.07731 9.37765 3.24098 9.96615 3.35274 10.5725C3.84881 13.2655 5.03326 16.0423 6.68784 18.3915C8.79472 21.3827 11.0074 23.2733 14.3068 24.9009C16.716 26.0896 18.2288 26.5635 20.614 26.8769C22.7141 27.1528 22.7399 27.1292 22.6877 24.9991C22.6658 24.1069 22.5744 23.2816 22.4845 23.1649C22.3946 23.0484 22.07 22.9529 21.7632 22.9529C19.8342 22.9529 16.3346 21.723 14.1592 20.2805C11.9356 18.806 9.78771 16.3119 8.50082 13.71C7.92046 12.5365 7.02126 9.47856 7.18068 9.22061C7.25005 9.10834 8.85663 9.04609 11.688 9.04609C15.7614 9.04609 16.0882 9.02405 16.0968 8.7493C16.1406 7.36845 16.0982 5.97811 16.0076 5.83175C15.8748 5.61687 0.517948 5.58448 0.180961 5.79834Z" fill="currentColor"/>
</svg>
