<svg width="20" height="20" viewBox="0 0 20 20" fill="none" xmlns="http://www.w3.org/2000/svg">
<path d="M13.125 15.9417C12.4333 15.9417 11.875 15.2417 11.875 14.375C11.875 13.5167 12.4333 12.8167 13.125 12.8167C13.8167 12.8167 14.375 13.5167 14.375 14.375C14.375 15.2417 13.8167 15.9417 13.125 15.9417ZM10 9.375C8.96668 9.375 8.12501 8.675 8.12501 7.81667C8.12501 6.95 8.96668 6.25 10 6.25C11.0333 6.25 11.875 6.95 11.875 7.81667C11.875 8.675 11.0333 9.375 10 9.375ZM6.87501 15.9417C6.18334 15.9417 5.62501 15.2417 5.62501 14.375C5.62501 13.5167 6.18334 12.8167 6.87501 12.8167C7.56668 12.8167 8.12501 13.5167 8.12501 14.375C8.12501 15.2417 7.56668 15.9417 6.87501 15.9417ZM10 6.875C10.3417 6.875 10.625 7.15833 10.625 7.5C10.625 7.84167 10.3417 8.125 10 8.125C9.65834 8.125 9.37501 7.84167 9.37501 7.5C9.37501 7.15833 9.65834 6.875 10 6.875ZM15.625 10C15.3583 10 15.1 10.0583 14.8667 10.1667C14.4667 9.65833 13.925 9.225 13.275 8.89167C13.75 8.225 14.0333 7.41667 14.0333 6.54167V6.49167C14.9417 6.3 15.625 5.49167 15.625 4.51667C15.625 3.40833 14.7167 2.5 13.6083 2.5C13.0333 2.5 12.5 2.74167 12.15 3.125C11.5073 2.71653 10.7615 2.4996 10 2.4996C9.23849 2.4996 8.49272 2.71653 7.85001 3.125C7.50001 2.74167 6.96668 2.5 6.39168 2.5C5.28334 2.5 4.37501 3.40833 4.37501 4.51667C4.37501 5.48333 5.05834 6.29167 5.95834 6.49167V6.54167C5.95834 7.41667 6.25001 8.23333 6.71668 8.89167C6.07501 9.225 5.53334 9.65833 5.13334 10.1667C4.84856 10.0384 4.53615 9.98361 4.22471 10.0074C3.91328 10.0311 3.61278 10.1326 3.35075 10.3026C3.08872 10.4726 2.87353 10.7056 2.7249 10.9803C2.57627 11.255 2.49894 11.5627 2.50001 11.875C2.50001 12.9167 3.33334 13.75 4.37501 13.75H4.42501C4.39168 13.95 4.37501 14.1667 4.37501 14.375C4.37501 16.1 5.49168 17.5 6.87501 17.5C7.71668 17.5 8.45834 16.975 8.91668 16.175C9.26668 16.225 9.62501 16.25 10 16.25C10.375 16.25 10.7333 16.225 11.0833 16.175C11.5417 16.975 12.2833 17.5 13.125 17.5C14.5083 17.5 15.625 16.1 15.625 14.375C15.625 14.1667 15.6083 13.95 15.575 13.75H15.625C16.6667 13.75 17.5 12.9167 17.5 11.875C17.5 10.8333 16.6667 10 15.625 10Z" fill="#607BD4"/>
</svg>
