<svg width="22" height="22" viewBox="0 0 22 22" fill="none" xmlns="http://www.w3.org/2000/svg">
<g clip-path="url(#clip0_406_5667)">
<path d="M10.9997 5.95831C11.3644 5.95831 11.7141 5.81345 11.972 5.55558C12.2299 5.29772 12.3747 4.94799 12.3747 4.58331V1.83331C12.3747 1.46864 12.2299 1.1189 11.972 0.86104C11.7141 0.603178 11.3644 0.458312 10.9997 0.458312C10.6351 0.458312 10.2853 0.603178 10.0275 0.86104C9.76959 1.1189 9.62473 1.46864 9.62473 1.83331V4.58331C9.62473 4.94799 9.76959 5.29772 10.0275 5.55558C10.2853 5.81345 10.6351 5.95831 10.9997 5.95831ZM7.58056 5.60081L5.63723 3.66665C5.37474 3.40746 5.0207 3.26212 4.65181 3.26212C4.28292 3.26212 3.92888 3.40746 3.66639 3.66665C3.53786 3.79359 3.43597 3.94494 3.36671 4.11179C3.29744 4.27865 3.26221 4.45765 3.26306 4.63831C3.26774 4.99928 3.41234 5.34434 3.66639 5.60081L5.63723 7.54415C5.89484 7.80208 6.24434 7.94716 6.60889 7.94748C6.88067 7.94724 7.14627 7.86647 7.37217 7.71536C7.59806 7.56426 7.77412 7.3496 7.87809 7.09851C7.98206 6.84741 8.00928 6.57113 7.95633 6.30456C7.90338 6.038 7.77261 5.7931 7.58056 5.60081ZM0.45806 11C0.45806 11.3647 0.602926 11.7144 0.860788 11.9723C1.11865 12.2301 1.46839 12.375 1.83306 12.375H4.58306C4.94773 12.375 5.29747 12.2301 5.55533 11.9723C5.81319 11.7144 5.95806 11.3647 5.95806 11C5.95806 10.6353 5.81319 10.2856 5.55533 10.0277C5.29747 9.76984 4.94773 9.62498 4.58306 9.62498H1.83306C1.46839 9.62498 1.11865 9.76984 0.860788 10.0277C0.602926 10.2856 0.45806 10.6353 0.45806 11ZM6.41639 14.2266C6.22691 14.2255 6.03929 14.2641 5.86562 14.3398C5.69196 14.4156 5.53609 14.527 5.40806 14.6666L3.45556 16.5733C3.20029 16.8323 3.05718 17.1813 3.05718 17.545C3.05718 17.9086 3.20029 18.2577 3.45556 18.5166C3.71494 18.7747 4.06593 18.9196 4.43181 18.9196C4.79769 18.9196 5.14868 18.7747 5.40806 18.5166L7.33306 16.5733C7.52218 16.3844 7.65213 16.1444 7.707 15.8828C7.76188 15.6212 7.73931 15.3492 7.64204 15.1002C7.54478 14.8513 7.37704 14.636 7.15936 14.4809C6.94168 14.3257 6.6835 14.2374 6.41639 14.2266ZM9.62473 20.1666C9.62473 20.5313 9.76959 20.8811 10.0275 21.1389C10.2853 21.3968 10.6351 21.5416 10.9997 21.5416C11.3644 21.5416 11.7141 21.3968 11.972 21.1389C12.2299 20.8811 12.3747 20.5313 12.3747 20.1666V17.4166C12.3747 17.052 12.2299 16.7022 11.972 16.4444C11.7141 16.1865 11.3644 16.0416 10.9997 16.0416C10.6351 16.0416 10.2853 16.1865 10.0275 16.4444C9.76959 16.7022 9.62473 17.052 9.62473 17.4166V20.1666ZM14.7122 14.6666C14.4547 14.9245 14.3101 15.2739 14.3101 15.6383C14.3101 16.0027 14.4547 16.3522 14.7122 16.61L16.6556 18.5533C16.9143 18.8096 17.2631 18.9543 17.6272 18.9566C17.9942 18.9548 18.346 18.8101 18.6081 18.5533C18.8626 18.2942 19.0043 17.9449 19.0022 17.5816C19.0043 17.3995 18.9697 17.2187 18.9004 17.0502C18.8311 16.8817 18.7285 16.7288 18.5989 16.6008L16.6556 14.6666C16.3977 14.4092 16.0483 14.2645 15.6839 14.2645C15.3195 14.2645 14.97 14.4092 14.7122 14.6666ZM21.5414 11C21.5414 10.6353 21.3965 10.2856 21.1387 10.0277C20.8808 9.76984 20.5311 9.62498 20.1664 9.62498H17.4164C17.0517 9.62498 16.702 9.76984 16.4441 10.0277C16.1863 10.2856 16.0414 10.6353 16.0414 11C16.0414 11.3647 16.1863 11.7144 16.4441 11.9723C16.702 12.2301 17.0517 12.375 17.4164 12.375H20.1664C20.5311 12.375 20.8808 12.2301 21.1387 11.9723C21.3965 11.7144 21.5414 11.3647 21.5414 11ZM17.4164 3.12581C17.0714 3.142 16.7447 3.28574 16.4997 3.52915L14.5381 5.49998C14.2806 5.75779 14.1359 6.10727 14.1359 6.47165C14.1359 6.83602 14.2806 7.1855 14.5381 7.44331C14.7974 7.70137 15.1484 7.84623 15.5143 7.84623C15.8802 7.84623 16.2312 7.70137 16.4906 7.44331L18.4339 5.49998C18.6392 5.30677 18.7801 5.05513 18.8376 4.77916C18.895 4.50319 18.8663 4.21622 18.7553 3.95712C18.6442 3.69802 18.4562 3.47931 18.2168 3.33062C17.9773 3.18192 17.6979 3.11042 17.4164 3.12581Z" fill="#526AC2"/>
</g>
<defs>
<clipPath id="clip0_406_5667">
<rect width="21.2939" height="21.2939" fill="white" transform="scale(1.03316)"/>
</clipPath>
</defs>
</svg>
