<svg width="76" height="76" viewBox="0 0 76 76" fill="none" xmlns="http://www.w3.org/2000/svg">
<circle cx="38" cy="38" r="38" fill="white"/>
<path d="M30.5003 40.1584H33.452L40.4814 33.1197C40.5962 32.9879 40.6822 32.8499 40.7391 32.7056C40.7961 32.5614 40.8251 32.418 40.826 32.2756C40.8268 32.1331 40.7979 31.992 40.7391 31.8522C40.6822 31.7133 40.5989 31.5775 40.4894 31.4448L39.2539 30.176C39.1382 30.0611 39.0055 29.9752 38.8559 29.9182C38.7045 29.8612 38.5554 29.8327 38.4085 29.8327C38.266 29.8327 38.1236 29.8572 37.9811 29.9062C37.8395 29.9543 37.7028 30.0442 37.5711 30.176L30.5003 37.2067V40.1584ZM38.4005 33.5778L37.1316 32.3156L38.4085 31.0401L39.6439 32.309L38.4005 33.5778ZM37.754 40.1584H45.5006V38.8228H39.0897L37.754 40.1584ZM25.9792 48.7878V28.1378C25.9792 27.5225 26.1853 27.0092 26.5976 26.5978C27.0099 26.1865 27.5227 25.9803 28.1362 25.9794H47.8633C48.4777 25.9794 48.9906 26.1856 49.402 26.5978C49.8133 27.0101 50.0195 27.5234 50.0204 28.1378V42.5211C50.0204 43.1355 49.8142 43.6488 49.402 44.0611C48.9897 44.4733 48.4768 44.679 47.8633 44.6781H30.0889L25.9792 48.7878Z" fill="#607BD4"/>
</svg>
