<svg width="724" height="702" viewBox="0 0 724 702" fill="none" xmlns="http://www.w3.org/2000/svg">
<path fill-rule="evenodd" clip-rule="evenodd" d="M5.12348 4.68403C0.629084 7.93249 -0.691386 22.6354 0.321774 58.0124L1.719 106.849L40.9009 108.432C64.3093 109.38 78.7896 109.363 86.6344 109.363C89.1313 113.011 91.7607 139.306 94.925 158.89C108.97 245.875 142.505 335.566 189.35 411.448C249.002 508.063 311.65 569.132 405.062 621.704C473.275 660.1 516.107 675.405 583.638 685.529C643.097 694.441 723.131 728.805 721.652 660.001C721.032 631.181 729.588 576.576 712.567 576.576C710.022 572.812 624.861 558.784 616.174 558.784C561.56 558.784 462.476 519.058 400.885 472.462C337.93 424.836 277.116 344.276 240.681 260.233C224.249 222.331 198.791 123.557 203.304 115.225C205.268 111.598 250.755 109.588 330.919 109.588C446.247 109.588 455.499 108.876 455.744 100.001C456.983 55.3994 455.783 10.4907 453.219 5.76319C449.459 -1.17744 14.6645 -2.22373 5.12348 4.68403Z" fill="white" fill-opacity="0.04"/>
</svg>
