<svg width="9" height="10" viewBox="0 0 9 10" fill="none" xmlns="http://www.w3.org/2000/svg">
<g clip-path="url(#clip0_95_2361)">
<path d="M8.72698 3.35855C8.69893 3.2668 8.64607 3.18579 8.57497 3.12561C8.50387 3.06542 8.41766 3.02869 8.32704 3.01999L5.80121 2.7769L4.803 0.299467C4.72929 0.11745 4.5616 0 4.37495 0C4.18829 0 4.02054 0.11745 3.94731 0.299467L2.94909 2.7769L0.422869 3.01999C0.237666 3.03811 0.0808498 3.17108 0.0229153 3.35855C-0.00531484 3.45039 -0.00751075 3.54899 0.0165995 3.64214C0.0407098 3.73529 0.0900669 3.81889 0.158557 3.88259L2.06789 5.65736L1.50493 8.28584C1.46374 8.4791 1.53449 8.67897 1.68577 8.79488C1.76501 8.85599 1.86049 8.88887 1.95848 8.88879C2.04247 8.8888 2.12489 8.86463 2.19693 8.81886L4.37495 7.43833L6.55257 8.81886C6.63069 8.86841 6.72081 8.89255 6.81175 8.88828C6.90269 8.88402 6.99045 8.85154 7.06414 8.79488C7.2154 8.67897 7.28617 8.4791 7.24498 8.28584L6.68201 5.65738L8.59134 3.88261C8.65983 3.81891 8.7092 3.73531 8.73331 3.64216C8.75742 3.54901 8.75522 3.45041 8.72698 3.35857V3.35855Z" fill="#191E35"/>
</g>
<defs>
<clipPath id="clip0_95_2361">
<rect width="8.56021" height="9.7831" fill="white" transform="scale(1.02216)"/>
</clipPath>
</defs>
</svg>
