<svg width="86" height="33" viewBox="0 0 86 33" fill="none" xmlns="http://www.w3.org/2000/svg">
<path d="M4.94881 0L6.05989 3.41955H9.65541L6.74657 5.53294L7.85765 8.95249L4.94881 6.83909L2.03997 8.95249L3.15105 5.53294L0.242212 3.41955H3.83773L4.94881 0Z" fill="url(#paint0_linear_109_117)"/>
<path d="M16.36 4.22949e-05L17.4711 3.41959H21.0666L18.1578 5.53298L19.2688 8.95253L16.36 6.83913L13.4512 8.95253L14.5622 5.53298L11.6534 3.41959H15.2489L16.36 4.22949e-05Z" fill="url(#paint1_linear_109_117)"/>
<path d="M27.7717 4.22949e-05L28.8828 3.41959H32.4783L29.5694 5.53298L30.6805 8.95253L27.7717 6.83913L24.8628 8.95253L25.9739 5.53298L23.0651 3.41959H26.6606L27.7717 4.22949e-05Z" fill="url(#paint2_linear_109_117)"/>
<path d="M39.1829 4.22949e-05L40.2939 3.41959H43.8895L40.9806 5.53298L42.0917 8.95253L39.1829 6.83913L36.274 8.95253L37.3851 5.53298L34.4763 3.41959H38.0718L39.1829 4.22949e-05Z" fill="url(#paint3_linear_109_117)"/>
<path d="M50.5945 4.22949e-05L51.7056 3.41959H55.3011L52.3923 5.53298L53.5034 8.95253L50.5945 6.83913L47.6857 8.95253L48.7968 5.53298L45.8879 3.41959H49.4835L50.5945 4.22949e-05Z" fill="url(#paint4_linear_109_117)"/>
<g clip-path="url(#clip0_109_117)">
<path fill-rule="evenodd" clip-rule="evenodd" d="M17.291 23.8408C17.291 19.2872 13.4193 15.3711 8.6455 15.3711C3.87168 15.3711 0 19.2872 0 23.8408C0 28.3945 3.87168 31.8647 8.6455 31.8647C13.4193 31.8647 17.291 28.3945 17.291 23.8408Z" fill="#607BD4"/>
<path fill-rule="evenodd" clip-rule="evenodd" d="M9.55579 20.2748H8.64573C7.17065 20.2748 6.3706 21.0287 6.3706 22.0579C6.3706 23.2307 7.10939 23.5687 8.19071 24.2867L9.10076 25.1783L6.3706 28.7445H4.5505L6.82563 25.6241C5.4943 24.6966 5.00552 23.5358 5.00552 22.0579C5.00552 20.1671 6.02683 18.9375 8.64573 18.9375H11.3759V28.7445H9.55579V20.2748Z" fill="white"/>
<path fill-rule="evenodd" clip-rule="evenodd" d="M26.8469 15.3713C23.0769 15.3713 20.0215 18.4138 20.0215 22.0579C20.0215 23.8799 20.6096 25.3248 21.8416 26.5156C23.0798 27.7125 26.2194 29.603 26.3919 31.4191C26.4165 31.693 26.5635 31.8649 26.8469 31.8649C27.1303 31.8649 27.2773 31.693 27.3019 31.4191C27.4744 29.603 30.614 27.7125 31.8522 26.5156C33.0842 25.3188 33.6723 23.874 33.6723 22.0579C33.6723 18.4138 30.6169 15.3713 26.8469 15.3713Z" fill="#607BD4"/>
<path fill-rule="evenodd" clip-rule="evenodd" d="M26.8471 24.2878C28.2274 24.2878 29.5773 23.2883 29.5773 22.059C29.5773 20.8297 28.2274 19.8301 26.8471 19.8301C25.4668 19.8301 24.572 20.8297 24.572 22.059C24.572 23.2883 25.4603 24.2878 26.8471 24.2878Z" fill="white"/>
<path fill-rule="evenodd" clip-rule="evenodd" d="M79.175 27.8533H78.2649V25.1787H79.175C80.1236 25.1787 80.5401 25.4705 80.5401 26.516C80.5463 27.5614 80.1174 27.8533 79.175 27.8533ZM83.7252 20.7209V29.6364H86.0004V20.7209H83.7252ZM75.9898 20.7209V29.6364H79.175C81.345 29.6364 82.8152 28.6492 82.8152 26.516C82.8152 24.4915 81.4752 23.3956 79.175 23.3956H78.2649V20.7209H75.9898ZM74.6247 22.504V20.7209H67.3443V22.504H69.6194V29.6364H71.8946V22.504H74.6247ZM62.794 28.2991C61.6284 28.2991 60.9739 27.2696 60.9739 25.1787C60.9739 23.0635 61.554 22.0582 62.794 22.0582C63.9969 22.0582 64.6141 23.0877 64.6141 25.1787C64.6203 27.2938 64.0651 28.2991 62.794 28.2991ZM60.9739 20.7209H58.6988V32.311H60.9739V28.7448C61.5319 29.5546 62.3004 30.0822 63.2491 30.0822C65.3943 30.0822 66.8893 28.2305 66.8893 25.1787C66.8893 22.145 65.3199 20.2751 63.2491 20.2751C62.2074 20.2751 61.5629 20.7302 60.9739 21.6125V20.7209ZM54.6036 27.4075C54.3246 27.8064 54.0135 28.2991 53.2385 28.2991C52.3147 28.2991 51.8734 27.7353 51.8734 26.9617C51.8734 25.9284 52.7125 25.6244 54.6036 25.6244V27.4075ZM56.8787 23.3956C56.8787 21.1958 55.5697 20.2751 53.2385 20.2751C51.7753 20.2751 50.7229 20.7799 50.0533 21.1667V22.9498C50.6423 22.5086 52.1039 22.0582 53.2385 22.0582C54.2925 22.0582 54.6036 22.4166 54.6036 23.3956V23.8413C51.2307 23.8413 49.5983 25.1246 49.5983 26.9617C49.5983 28.7989 50.6234 29.6364 52.3284 29.6364C53.6242 29.6364 54.1819 29.6197 54.6036 29.1906C54.6222 29.4263 54.9904 29.449 55.0586 29.6364H56.8787C56.8043 28.8991 56.8787 28.1448 56.8787 27.4075V23.3956ZM46.8681 29.6364H49.5983L45.048 22.9498L49.1432 17.1547H46.8681L42.7729 22.9498V17.1547H40.4977V29.6364H42.7729V23.8413L46.8681 29.6364Z" fill="#191E35"/>
</g>
<defs>
<linearGradient id="paint0_linear_109_117" x1="4.94881" y1="0" x2="4.94881" y2="9.89762" gradientUnits="userSpaceOnUse">
<stop stop-color="#2E365D"/>
<stop offset="1" stop-color="#46559D"/>
</linearGradient>
<linearGradient id="paint1_linear_109_117" x1="16.36" y1="4.22949e-05" x2="16.36" y2="9.89767" gradientUnits="userSpaceOnUse">
<stop stop-color="#2E365D"/>
<stop offset="1" stop-color="#46559D"/>
</linearGradient>
<linearGradient id="paint2_linear_109_117" x1="27.7717" y1="4.22949e-05" x2="27.7717" y2="9.89767" gradientUnits="userSpaceOnUse">
<stop stop-color="#2E365D"/>
<stop offset="1" stop-color="#46559D"/>
</linearGradient>
<linearGradient id="paint3_linear_109_117" x1="39.1829" y1="4.22949e-05" x2="39.1829" y2="9.89767" gradientUnits="userSpaceOnUse">
<stop stop-color="#2E365D"/>
<stop offset="1" stop-color="#46559D"/>
</linearGradient>
<linearGradient id="paint4_linear_109_117" x1="50.5945" y1="4.22949e-05" x2="50.5945" y2="9.89767" gradientUnits="userSpaceOnUse">
<stop stop-color="#2E365D"/>
<stop offset="1" stop-color="#46559D"/>
</linearGradient>
<clipPath id="clip0_109_117">
<rect width="85.3225" height="16.8059" fill="white" transform="translate(0 15.3725) scale(1.00794)"/>
</clipPath>
</defs>
</svg>
