<svg width="23" height="22" viewBox="0 0 23 22" fill="none" xmlns="http://www.w3.org/2000/svg">
<path fill-rule="evenodd" clip-rule="evenodd" d="M0.183355 0.146933C0.0225131 0.248834 -0.0247427 0.710051 0.0115154 1.81979L0.0615181 3.35174L1.46373 3.4014C2.30144 3.43113 2.93141 3.53492 3.02867 3.65916C3.11802 3.7736 3.28385 4.36988 3.39709 4.98421C3.89972 7.71285 5.09985 10.5264 6.77631 12.9067C8.91107 15.9374 11.1531 17.8531 14.496 19.5022C16.9372 20.7066 18.47 21.1868 20.8867 21.5043C23.0146 21.7839 23.0407 21.76 22.9878 19.6017C22.9656 18.6977 22.873 17.8615 22.7819 17.7433C22.6909 17.6252 22.362 17.5285 22.0511 17.5285C20.0966 17.5285 16.5507 16.2823 14.3465 14.8206C12.0935 13.3267 9.91719 10.7996 8.61327 8.16324C8.02524 6.97428 7.11415 3.87585 7.27568 3.61448C7.34596 3.50072 8.97379 3.43766 11.8426 3.43766C15.9699 3.43766 16.301 3.41532 16.3098 3.13694C16.3541 1.73782 16.3112 0.329083 16.2194 0.180785C16.0848 -0.0369349 0.524799 -0.069756 0.183355 0.146933Z" fill="#191E35"/>
</svg>
